<svg xmlns="http://www.w3.org/2000/svg" viewBox="0 0 113 34"><path class="asda-icon__draw" fill-rule="evenodd" d="M101.698 2.012H90.337l-6.479 18.752c.29-1.557.341-2.802.341-3.343 0-7.856-4.501-15.409-15.076-15.409H56.978l.036 18.653c-1.05-5.3-5.892-6.72-11.913-8.55-2.25-.693-3.486-1.794-3.035-2.82.385-.896 1.765-1.177 3.44-.946 2.554.366 4.594 1.22 6.558 2.289l2.684-6.651c-.605-.299-4.954-2.909-10.404-2.909-7.6 0-12.454 3.708-12.454 9.18 0 4.876 3.003 7.711 8.525 9.3 5.939 1.723 7.445 2.416 7.266 4.124-.154 1.472-3.835 3.265-12.841-2.276l-2.676 5.537-8.26-24.93H12.547L1.814 33.003h8.952L12.5 28H23l1.784 5.004h9.398l-1.066-3.031c3.177 1.836 7.117 3.517 11.83 3.517 7.22 0 11.123-3.943 12.054-7.722v7.236h12.11c7.219 0 10.995-3.442 12.968-7.126l-2.477 7.126h8.945L90.336 28H101l1.572 5.004h9.41L101.697 2.012zM14.5 21l3.338-10.648L21 21h-6.5zM66 25.012V10h2.135c3.043 0 6.365 1.232 6.365 7.506 0 5.557-2.934 7.506-6.339 7.506H66zM92.5 21l3.184-10.521L99 21h-6.5z"></path></svg>