<svg xmlns="http://www.w3.org/2000/svg" x="0px" y="0px" height="34" width="125" style="max-height:100%" viewBox="0 0 101.3499908 27.4900000" enable-background="new 0 0 101.3499908 27.4900000"><title>Tesco</title><path fill="#ff8f1c" d="M7.8 22.5h12.4c0.1 0 0.1 0.1 0 0.1 -1.5 0.6-3.5 2.5-3.5 2.5 -1.4 1.2-2.5 2-4.8 2H0.1c-0.1 0-0.1-0.1 0-0.1 1.3-0.7 3.2-2.6 3.2-2.6C4.1 23.6 5.7 22.5 7.8 22.5L7.8 22.5 7.8 22.5z"></path><path fill="#87189d" d="M88.9 22.5h12.4c0.1 0 0.1 0.1 0 0.1 -1.4 0.6-3.4 2.5-3.4 2.5 -1.4 1.2-2.5 2-4.8 2H81.2c-0.1 0-0.1-0.1 0-0.1C82.5 26.3 84.4 24.4 84.4 24.4 85.3 23.6 86.9 22.5 88.9 22.5L88.9 22.5 88.9 22.5z"></path><path fill="#f3e600" d="M28.1 22.5h12.4c0.1 0 0.1 0.1 0 0.1 -1.4 0.6-3.4 2.5-3.4 2.5 -1.4 1.2-2.5 2-4.8 2H20.5c-0.1 0-0.1-0.1 0-0.1 1.3-0.7 3.2-2.6 3.2-2.6C24.4 23.6 26 22.5 28.1 22.5L28.1 22.5 28.1 22.5z"></path><path fill="#3a913f" d="M48.3 22.5h12.4c0.1 0 0.1 0.1 0 0.1 -1.4 0.6-3.4 2.5-3.4 2.5 -1.4 1.2-2.5 2-4.8 2H40.7c-0.1 0-0.1-0.1 0-0.1 1.3-0.7 3.2-2.6 3.2-2.6C44.7 23.6 46.3 22.5 48.3 22.5L48.3 22.5 48.3 22.5z"></path><path fill="#1e22aa" d="M68.6 22.5h12.4c0.1 0 0.1 0.1 0 0.1 -1.4 0.6-3.4 2.5-3.4 2.5 -1.4 1.2-2.5 2-4.8 2H61c-0.1 0-0.1-0.1 0-0.1 1.3-0.7 3.2-2.6 3.2-2.6C65 23.6 66.6 22.5 68.6 22.5L68.6 22.5 68.6 22.5z"></path><path fill="#E52922" d="M72 0.1c-7.8 0-12.9 3.7-12.9 9.4 0 5.2 4.7 8.7 11.8 8.7 2.3 0 4.3-0.3 6.7-0.9v-4.4c-1.7 1.8-3.7 2.5-5.9 2.5 -4.2 0-7-2.6-7-6.4 0-3.7 3-6.4 7.1-6.4 2.3 0 4.1 0.8 5.5 2.2V0.6C75.8 0.2 73.9 0.1 72 0.1L72 0.1 72 0.1z"></path><path fill="#E52922" d="M13.5 3.1c2.9 0 6.3 0.5 7.8 1.7V0.6H0.7v4.2c1.5-1.1 4.5-1.6 7.8-1.6v11.4c0 1.7-0.1 2.1-0.9 3h6.6c-0.7-0.9-0.9-1.4-0.9-3v-11.5H13.5L13.5 3.1z"></path><path fill="#E52922" d="M34.8 7.3c-1.2 0.4-3.3 0.5-4.4 0.5h-1.7v-4.5h2.3c2.1 0 5.7 0.4 7 1.6V0.6H23.1c0.7 0.9 0.8 1.4 0.8 3v11c0 1.7-0.1 2.2-0.8 3h15.9V13.5c-2.2 1.6-6.3 1.6-8 1.5h-2.3v-4.7h1.7c1.2 0 3.2 0.1 4.4 0.5V7.3L34.8 7.3 34.8 7.3z"></path><path fill="#E52922" d="M56.9 1.2c-2.3-0.7-5.5-1.2-7.8-1.2 -4.3 0-8.5 1.3-8.5 5.6 0 7.4 13 3.5 13 8 0 1.5-2.3 2.1-4.1 2.1 -3.3 0-5.7-0.5-8.6-2.2v3.7c2.2 0.7 5.1 1.1 8.4 1.1 4.5 0 8.7-1.2 8.7-5.5 0-7.8-13-4.3-13-8.1 0-1.5 2.1-2.1 3.9-2.1 3.1 0 6.4 0.9 8.2 2.6v-4H56.9L56.9 1.2z"></path><path fill="#E52922" d="M83.8 9.2c0-3.6 2.3-6.5 5.8-6.5s5.8 2.9 5.8 6.5c0.1 3.5-2.2 6.4-5.7 6.4C86.1 15.6 83.8 12.7 83.8 9.2L83.8 9.2 83.8 9.2zM100.7 9c0-5.4-4.2-9-10.5-9 -6.8 0.1-11.5 3.9-11.5 9.4 0 5.3 4.3 8.9 10.6 8.9C96 18.3 100.7 14.5 100.7 9L100.7 9 100.7 9z"></path></svg>