<svg viewBox="0 0 398 85" xmlns="http://www.w3.org/2000/svg" class="logoRegular___26s6Z homepage___qyLYF"><title>Waitrose and Partners</title><g fill="#5c8018" fill-rule="evenodd"><path d="M372.02 1.366v43.086h25.229v-5.558h-19.005V25.499h17.801v-5.557h-17.8V6.922h18.44V1.365H372.02M59.982 1.366L48.155 31.058 36.082 1.366h-5.904L18.173 31.058 6.221 1.366H0l17.533 43.467h1.207L33.1 9.579l14.237 35.254h1.206L66.14 1.366h-6.157M134.535 44.48h6.228V1.393h-6.228zM339.51 27.008l-4.714-2.848c-2.956-1.795-4.826-3.589-6.173-5.252-1.397-1.727-2.095-3.85-2.095-6.11 0-3.392 1.183-6.147 3.551-8.265 2.367-2.117 5.523-3.14 9.306-3.14 3.99 0 6.94 1.01 9.957 3.03v7c-3.123-2.986-6.482-4.48-10.08-4.48-2.027 0-3.69.466-4.992 1.4-1.305.93-1.955 2.152-1.955 3.606 0 1.29.315 2.362 1.275 3.488.96 1.125 2.667 2.445 4.794 3.684l4.916 2.788c5.286 3.138 7.749 7.135 7.749 11.985 0 3.454-1.201 6.3-3.528 8.46-2.326 2.158-5.312 3.308-9.033 3.24-4.272-.074-8.098-1.257-11.694-3.966v-7.833c3.35 4.22 7.226 6.239 11.63 6.239 1.944 0 3.562-.448 4.855-1.523 1.292-1.076 1.996-2.422 1.996-4.04 0-2.624-1.96-5.11-5.764-7.463M102.004 26.473l-6.991-15.608-6.485 15.608h13.476zM92.89 1.393h4.36l19.431 43.34h-6.35l-5.775-12.77h-18.49l-5.415 12.77h-6.376L92.89 1.394zM158.36 1.393h36.318v5.482h-15.04V44.48h-6.225V6.875H158.36V1.393M222.087 6.61h-1.861v13.6h2.357c3.145 0 5.299-.266 6.469-.8a6.06 6.06 0 0 0 2.73-2.423c.651-1.08.975-2.307.975-3.685 0-1.357-.361-2.585-1.085-3.687-.724-1.098-1.742-1.874-3.055-2.327-1.313-.452-3.49-.679-6.53-.679zm-8.191 37.844V1.367h10.982c4.384 0 7.865 1.078 10.44 3.238 2.572 2.159 3.86 5.078 3.86 8.758 0 2.51-.63 4.678-1.89 6.509-1.264 1.83-2.96 3.196-5.316 4.1 1.384.907 2.74 2.141 4.063 3.703 1.323 1.562 3.118 4.286 5.517 8.173 1.51 2.447 2.785 4.286 3.694 5.52l2.296 3.086h-7.464s-1.994-3.118-2.18-3.366l-3.128-4.845-2.314-3.362c-1.282-1.77-2.458-3.233-3.523-4.282-1.068-1.046-1.906-1.745-2.764-2.206-.86-.461-2.424-.694-4.455-.694H220.1v18.755h-6.204zM285.297 6.524c-4.958 0-9.033 1.541-12.224 4.626-3.191 3.083-4.787 7.02-4.787 11.811 0 4.646 1.601 8.511 4.802 11.595 3.202 3.084 7.21 4.626 12.023 4.626 4.833 0 8.867-1.573 12.101-4.72 3.232-3.144 4.849-7.06 4.849-11.747 0-4.565-1.617-8.404-4.849-11.519-3.234-3.115-7.206-4.672-11.915-4.672zm-.248-5.86c6.693 0 12.268 2.108 16.72 6.323 4.453 4.213 6.68 9.497 6.68 15.85s-2.245 11.61-6.74 15.775c-4.494 4.163-10.161 6.244-17 6.244-6.53 0-11.97-2.081-16.32-6.244-4.348-4.165-6.523-9.38-6.523-15.65 0-6.436 2.189-11.762 6.57-15.975 4.38-4.215 9.917-6.322 16.613-6.322zM129.838 69.084h-2.615v5.4h2.765c1.866 0 3.154-.83 3.154-2.743 0-1.77-1.101-2.657-3.304-2.657zm-5.113 15.086V66.885h5.547c1.657 0 2.978.445 3.965 1.335.985.89 1.478 2.083 1.478 3.581 0 1.006-.228 1.926-.738 2.697a4.369 4.369 0 0 1-2.095 1.66c-1.066.403-2.044.53-3.777.525h-1.882v7.487h-2.498zM154.051 76.93l-2.801-6.25-2.597 6.25h5.398zm-3.65-10.045h1.746l7.782 17.36h-2.544l-2.312-5.114h-7.407l-2.168 5.114h-2.554l7.457-17.36zM194.796 66.885h14.569v2.2h-6.033V84.17h-2.498V69.084h-6.038v-2.199M235.23 66.885h2.36v17.26h-2.138L223.759 70.85v13.293h-2.336V66.885h2.012l11.794 13.407V66.885M252.254 66.885h9.839v2.2h-7.355v5.262h7.107v2.212h-7.107v5.361h7.592v2.2h-10.076V66.886M175.655 68.985h-.745v5.449h.943c1.26 0 2.123-.106 2.591-.321 1.006-.458 1.479-1.418 1.486-2.448.005-1.072-.602-2.047-1.66-2.408-.527-.18-1.397-.272-2.615-.272zm-3.282 15.16v-17.26h4.4c1.757 0 3.15.432 4.181 1.298 1.031.863 1.547 2.034 1.547 3.508 0 1.005-.252 1.874-.758 2.607-.506.732-1.184 1.28-2.129 1.643.555.364 1.098.857 1.627 1.483.531.626 1.249 1.718 2.212 3.274a32.71 32.71 0 0 0 1.48 2.212l.919 1.234h-2.99s-.8-1.248-.872-1.347l-1.255-1.941-.927-1.348c-.513-.707-.984-1.294-1.412-1.713-.427-.42-.762-.7-1.105-.884-.346-.185-.973-.279-1.786-.279h-.647v7.512h-2.485z"></path><g><path d="M278.493 69.643h-.745v5.448h.944c1.26 0 2.122-.106 2.592-.32 1.005-.459 1.478-1.419 1.485-2.449.006-1.071-.601-2.047-1.66-2.407-.526-.18-1.398-.272-2.616-.272zm-3.282 15.16v-17.26h4.402c1.755 0 3.15.432 4.18 1.297 1.032.864 1.548 2.035 1.548 3.509 0 1.005-.254 1.874-.758 2.607-.506.732-1.185 1.28-2.13 1.643.556.364 1.098.857 1.628 1.483.53.625 1.249 1.718 2.211 3.274.603.98 1.114 1.717 1.479 2.212l.92 1.234h-2.99s-.799-1.248-.873-1.347l-1.254-1.941-.927-1.348c-.513-.708-.985-1.294-1.411-1.714-.427-.42-.764-.7-1.107-.883-.345-.186-.971-.279-1.784-.279h-.648v7.512h-2.486zM305.096 77.572l-1.889-1.142c-1.184-.72-2.026-1.427-2.528-2.123-.502-.696-.752-1.497-.752-2.403 0-1.36.475-2.463 1.423-3.31.948-.85 2.18-1.273 3.696-1.273 1.45 0 2.779.404 3.988 1.214v2.802c-1.251-1.194-2.595-1.793-4.037-1.793-.813 0-1.479.187-2.001.56-.522.374-.782.851-.782 1.434 0 .517.192 1 .576 1.452.384.451 1.003.925 1.854 1.421l1.899 1.116c2.116 1.259 3.175 2.858 3.175 4.804 0 1.383-.466 2.506-1.398 3.37-.932.867-2.143 1.299-3.633 1.299-1.715 0-3.276-.524-4.685-1.572v-3.14c1.341 1.692 2.894 2.538 4.659 2.538.779 0 1.428-.216 1.945-.646.517-.43.776-.972.776-1.62 0-1.05-.762-2.046-2.286-2.988M96.406 81.259c-1.597 1.815-5.177 2.371-6.022.537-.998-2.166.877-3.582 2.386-4.475 0 0 2.79 3.02 3.636 3.938zm-2.904-11.442c1.06-.026 1.935.537 2.094 1.455.155.885-.36 1.683-.971 2.271a8.213 8.213 0 0 1-1.297.992c-.555-.494-1.003-1.036-1.312-1.577-.263-.46-.47-.988-.468-1.523.005-.962.904-1.591 1.954-1.618zm5.826 11.093c1.052-1.356 2.01-3.865 2.175-4.78l-2.145.004c-.217.713-.77 2.141-1.451 3.252L94.77 75.98c1.545-.893 3.102-2.534 3.053-4.445-.029-1.115-.456-2.029-1.284-2.746-.83-.718-1.87-1.077-3.128-1.077-1.281 0-2.312.366-3.096 1.1-.782.732-1.213 1.69-1.13 2.867.099 1.38.795 2.45 2.128 3.967-.391.214-1.31.822-1.637 1.088-1.471 1.211-2.424 2.542-2.071 4.728.232 1.438 1.384 3.282 4.292 3.505 2.387.182 4.37-.689 6-2.194l1.942 2.03h3.136l-3.647-3.893z"></path></g></g></svg>