<svg xmlns="http://www.w3.org/2000/svg"><g fill="none" fill-rule="evenodd"><path d="M362.079 36.447c-87.02-13.668-220.416 115.848-209.712 198.885 10.705 83.037 259.4 115.49 322.685 55.945C538.338 231.732 449.1 50.115 362.08 36.447z" fill="#f5f7fd"/><path d="M421 124.199c1.735 1.392 3.036 1.674 3.903.847 1.3-1.242-.334-3.95 1.228-4.513s2.5 2.373 4.007 1.382c1.507-.99-.075-3.888 1.313-4.915 1.389-1.027 1.81 2.449 3.422 1.575 1.613-.873-.178-2.64 1.455-3.842.558-.41 1.394-.215 2.507.583" stroke="#bac7f8" stroke-linecap="round" stroke-width="2.031"/><path d="M260 90l-3.014-1.5" stroke="#d5e0fb" stroke-linecap="round" stroke-width="2.031"/><path d="M202.298 145.174c1.43-.79 2.468-4.695 1.119-5.289s-5.724 1.726-5.83 3.216c-.107 1.49 3.28 2.862 4.71 2.073z" fill="#d5e0fb"/><circle cx="200.5" cy="201.5" fill="#d5e0fb" r="2.5"/><path d="M98.424 349.111c2.144 1.894-.278 4.39 1.768 6.55 2.046 2.16 2.532 5.686-2.155 5.733-4.687.046-7.298-1.064-8.962-4.347-1.665-3.282-.354-7.719 1.95-9.487s5.256-.343 7.4 1.551z" fill="#fff"/><path d="M96.264 348.353c1.887 1.915-.192 4.381 1.614 6.562 1.806 2.182 2.27 5.71-1.81 5.704-4.08-.006-6.366-1.144-7.853-4.442-1.486-3.299-.397-7.716 1.589-9.456 1.985-1.74 4.572-.284 6.46 1.632z" fill="#ffdfce"/><path d="M95.288 347.826c.469 3.31-2.247 10.59-2.218 11s-5.437.546-5.582-1.493 1.196-7.227 2.844-9.703 4.487-3.114 4.956.196z" fill="#ffbeaf"/><path d="M117.244 365.479c-3.677-2.15-6.86-2.368-9.939-4.591-3.08-2.224-2.717-3.476-3.836-3.977-1.119-.501-2.339-.643-4.025.457s-.573 2.57-1.786 3.014c-.694.253-3.612-.749-6.158-1.5-1.91-.564-3.872-1.624-4.21-1.641-.786-.042-2.128 5.477-1.442 6.093s9.838 3.638 16.313 4.903 13.277 2.426 16.262 1.954c2.985-.472 2.497-2.562-1.18-4.712z" fill="#fff"/><path d="M100.559 357.95c1.754 1.666 4.503 4.93 9.03 6.87 7.33 3.143 9.82 5.718 8.434 6.556-2.973 1.796-25.735-3.957-30.968-5.777-5.233-1.82-1.349-6.3.799-7.323 2.147-1.022 6.241 2.39 9.064 2.461 1.39.035 1.187-1.436 1.524-2.342.347-.933 1.226-1.291 2.117-.446z" fill="#ffd4a0"/><g stroke="#2a2f54" stroke-linecap="round" stroke-width="2"><path d="M117.244 365.479c-3.677-2.15-6.86-2.368-9.939-4.591-3.08-2.224-2.717-3.476-3.836-3.977-1.119-.501-2.339-.643-4.025.457s-.573 2.57-1.786 3.014c-.694.253-3.612-.749-6.158-1.5-1.91-.564-3.872-1.624-4.21-1.641-.786-.042-2.128 5.477-1.442 6.093s9.838 3.638 16.313 4.903 13.277 2.426 16.262 1.954c2.985-.472 2.497-2.562-1.18-4.712z" stroke-linejoin="round"/><path d="M99.348 350.388a5.6 5.6 0 0 0 .04 2.14c.205 1.015.756 2 1.653 2.956m-10.671-6.568l-2.416 7.885"/></g><path d="M139.359 295.957c1.226 2.007-1.104 3.638-.006 5.85 1.099 2.212.746 5.272-2.788 4.405-3.534-.866-5.271-2.304-5.854-5.386-.582-3.083 1.307-6.56 3.4-7.602s4.022.727 5.248 2.733z" fill="#ffdfce"/><path d="M135.574 295.87c.086 2.634-.034 9.825-.046 10.15-.011.323-6.818-1.712-6.76-3.322.057-1.61 1.522-5.57 2.999-7.38 1.477-1.808 3.72-2.08 3.807.553z" fill="#ffbeaf"/><path d="M141.496 303.183c-1.083-.435-2.56.155-3.328.904-.768.749.067 2.233-1.215 2.313-.581.036-1.654-.123-4.272-1.756-1.582-.986-2.456-3.026-3.575-3.423s-3.541 4.152-3.047 6.053 14.93 9.19 20.975 10.766c6.044 1.575 8.512.597 4.694-3.075-2.315-2.226-6.228-4.31-8.165-6.911-1.574-2.113-1.581-4.675-2.067-4.87z" fill="#fff"/><path d="M139.655 304.191c1 1.94 2.43 5.606 5.504 8.336 4.978 4.422 7.108 5.632 5.867 6.175-2.662 1.164-19.74-7.106-23.382-9.855-2.428-1.832-2.06-4.693 1.101-8.581 3.582 3.541 6.091 5.513 7.528 5.917 1.061.298 1.213-1.157 1.661-1.966.463-.833 1.214-1.01 1.721-.026z" fill="#fdeedb"/><path d="M141.221 314.952c-3.392.184-12.85-4.667-14.368-6.56-1.518-1.89-.045-5.776 2.485-6.427 1.086-.28 2.657 1.78 3.924 2.658 1.684 1.165 11.351 10.146 7.959 10.33z" fill="#ffd4a0"/><g stroke="#2a2f54" stroke-linecap="round" stroke-width="2"><path d="M141.496 303.183c-1.083-.435-2.56.155-3.328.904-.768.749.067 2.233-1.215 2.313-.581.036-1.654-.123-4.272-1.756-1.582-.986-2.456-3.026-3.575-3.423s-3.541 4.152-3.047 6.053 14.93 9.19 20.975 10.766c6.044 1.575 8.512.597 4.694-3.075-2.315-2.226-6.228-4.31-8.165-6.911-1.574-2.113-1.581-4.675-2.067-4.87z" stroke-linejoin="round"/><path d="M140.262 298.006c-.27 1.101-.362 2.099-.275 2.994m-8.07-4.975a75.262 75.262 0 0 0-1.457 2.806"/></g><g stroke="#2a2f54" stroke-linecap="round" stroke-width="2"><path d="M282.815 462.583c.65-.008 1.427-.26 2.327-.753s1.676-1.094 2.327-1.8m-1.514 6.579a10.832 10.832 0 0 0 2.244-.789c.71-.342 1.338-.918 1.884-1.729"/><path d="M271 440l.134 5.393" stroke-linejoin="round"/></g><path d="M273.266 441.062c-.827.606-1.413 3.842-1.034 5.666.379 1.825 2.938 5.051 4.54 4.21 1.603-.842 5.16-3.486 5.45-4.32.29-.835.069-4.565-1.03-5.214-1.097-.649-7.099-.948-7.926-.342z" fill="#ecc6c3"/><path d="M272.266 437.902c-.542 2.558-.182 4.394 1.081 5.507 1.895 1.67 4.392 2.417 6.82 1.454 1.618-.642 2.228-2.271 1.83-4.886z" fill="#db9a9d"/><path d="M281.835 441.155c-.07 1.161-.097 2.109-.078 2.842.02.774.093 1.67.22 2.687" stroke="#2a2f54" stroke-linecap="round" stroke-linejoin="round" stroke-width="2"/><path d="M323.974 438.943c.812 1.42 2.504 2.243 5.078 2.468 3.86.338 3.889-.906 5.17-2.559 1.282-1.653 2.395-5.813 1.064-7.937-1.33-2.124-7.256-2.66-8.64-1.987-.924.449-1.814 3.787-2.672 10.015z" fill="#ecc6c3"/><path d="M325.637 427.916c-.599 2.798-.194 4.806 1.214 6.026 2.113 1.83 4.895 2.652 7.596 1.602 1.8-.7 2.477-2.48 2.03-5.342z" fill="#db9a9d"/><path d="M321 443.008c-3.369 4.082-4.111 9.12-2.13 11.525 1.98 2.405 10.718 4.573 17.452 6.474 6.733 1.902 19.095 5.428 20.319 4.134 1.224-1.294-4.702-4.38-15.504-9.224s-8.682-11.506-11.288-13.177c-2.606-1.67-5.48-3.814-8.849.268z" fill="#d2d5fc"/><g stroke="#2a2f54" stroke-linecap="round" stroke-width="2"><path d="M338.021 443.944c-1.595-1.595-2.874-2.847-3.548-3.211-2.026-1.095-4.113 1.792-5.818 1.474-4.17-.777-6.676-3.651-7-3.101-.685 1.162-6.721 11.747-4.858 14.428 1.863 2.68 47.972 16.25 47.436 10.636-.603-6.323-16.69-12.251-17.233-12.597"/><path d="M337.984 448.604c1.021-.31 1.764-.69 2.23-1.144.464-.454.887-1.143 1.268-2.067m.044 6.18c1-.265 1.745-.697 2.237-1.295.258-.313.557-.953.9-1.92m-20.444-17.08l-.444 5.148m12.222-3.65l-.96 4.658"/></g><path d="M279.062 238.738l-4.34 27.183-2.089 72.21c-6.3 59.154-8.36 90.499-6.179 94.036 3.27 5.305 13.55 6.088 18.706.683 5.156-5.405 16.757-52.884 20.467-74.768 2.473-14.59 3.534-41.999 3.18-82.228l20.42 54.78c-6.605 21.973-10.687 39.447-12.245 52.421s-1.327 27.401.693 43.28l18.792 2.977c15.182-60.113 22.758-95.554 22.73-106.324-.028-10.77-8.242-37.346-24.642-79.73" fill="#dde7ff"/><path d="M312.97 296.386c-8.68 16.293-25.551 41.14-26.38 49.041-4.156 39.575-14.822 90.07-19.245 90.246-2.949.117-4.789-1.515-5.519-4.896-1.084-16.042-.639-30.196 1.336-42.461 1.037-6.44 8.556-23.15 10.212-41.954 3.075-34.92.606-77.649 2.278-79.376 2.573-2.658 7.45-4.223 8.206-1.799.319 1.025 11.768-1.882 21.327.628-.07-.527-.117-.99-.14-1.386-.587-10.018 23.274-3.868 27.9 2.571s15.358 52.02 15.358 60c0 7.98-18.916 99.198-20.906 101.654-1.99 2.456-9.069 2.203-10.647-.548-1.577-2.75-3.365-16.078-1.255-35.662 1.407-13.056 4.997-30.603 10.77-52.639-5.5-17.422-9.932-31.896-13.295-43.42z" fill="#bbcdfa"/><path d="M274.573 269.462c-.15 1.8-.493 14.939-.673 23.03m1.508 42.171c2.028 7.776.6 17.259-4.285 28.45-7.327 16.785-9.384 66.574-4.266 71.167 5.118 4.592 15.06 7.645 18.35.849 3.289-6.796 14.812-60.544 17.266-75.011.71-4.186 1.301-9.436 1.774-15.75m4.106-66.096l20.665 54.909m-3.991 16.096c-3.96 14.624-6.517 26.755-7.673 36.395-1.551 12.93-1.08 39.274.367 41.011 1.448 1.737 18.233 4.543 20.626 2.317 2.393-2.226 21.218-92.439 21.185-103.172-.03-9.61-6.627-31.849-19.79-66.718" stroke="#2a2f54" stroke-linecap="round" stroke-width="2"/><path d="M354.044 141.308c0-2.917-1.708-7.992 1.508-9.776 2.443-1.355 7.211.683 13.866-.829 6.656-1.512 19.61-1.104 20.554 0 1.68 1.966-2.32 5.277-5.972 5.955-4.005.743-9.67.302-13.895 1.987s-5.399 2.785-5.421 5.355c-.022 2.57.858 5.296.024 6.873s-5.626 2.396-8.28.429-2.384-5.302-2.384-9.994z" fill="#ecc6c3"/><path d="M377 136.658c-.639-1.61-5.034-.386-9.89.144-4.283.468-5.76-.28-8.61 2.068-1.254 1.033-2.356 9.172-1 11.924s5.366 2.218 6.739.389c1.372-1.829-.367-5.268 0-7.238.472-2.542 13.213-6.15 12.761-7.287z" fill="#db9a9d"/><path d="M334.956 80.18c2.31 29.569 4.956 45.52 7.937 47.851 4.472 3.498 48.855 3.643 52.345.856 2.327-1.858 5.716-17.047 10.166-45.566z" fill="#fff"/><path d="M341.806 86.318c-9.742 6.206-1.505 35.744 2.194 39.088 4.237 3.831 13.011 4.439 21.363 5.076 13.21 1.008 28.84 1.832 30.739.221 3.098-2.63 15.547-34.508 7.503-42.336-8.043-7.828-52.057-8.255-61.799-2.049z" fill="#ffd7ae"/><path d="M347.313 125.63c1.655-7.008 42.961-19.282 49.946-18.387 6.985.894 1.67 22.605-2.883 24.104-4.553 1.499-48.719 1.29-47.063-5.718zm-9.223-44.674c-1.951.44.479 8.753 4.715 8.984 4.237.231 44.837 5.3 51.297 6.372 6.46 1.071 11.763-2.607 8.581-5.927-3.181-3.32-62.642-9.87-64.593-9.43z" fill="#ffc68c"/><path d="M372.76 132.645c11.762.577 19.177.248 22.245-.986 4.524-1.82 6.184-19.748 8.808-38.125m-68.111-4.406c2.129 23.85 4.526 36.818 7.19 38.903.943.737 3.655 1.325 7.382 1.768" stroke="#2a2f54" stroke-linecap="round" stroke-width="2"/><path d="M387.84 134.31c-1.162.86-2.64 1.56-4.073 1.852-3.991.813-9.663.47-13.858 2.23s-4.541 1.291-5.329 3.928c-.306 1.025-.452 2.332-.562 3.64m-10.54-.624a61.144 61.144 0 0 1-.053-1.817c-.051-2.917-1.367-9.678 1.817-11.518 1.685-.973 4.518-.788 8.327-.852" stroke="#2a2f54" stroke-linecap="round" stroke-linejoin="round" stroke-width="2"/><path d="M334.194 70.097c-2.545 1.573-1.755 12.115.346 14.08 1.06.992 19.002.464 37.066 1.796 17.735 1.308 35.598 4.492 36.559 3.672 1.939-1.657 4.099-12.636.477-14.851-3.62-2.215-71.904-6.27-74.448-4.697z" fill="#ffd7ae"/><g stroke="#2a2f54" stroke-linecap="round" stroke-width="2"><path d="M398.019 72.43c-9.187-.744-30.663-2.027-40.578-2.54-13.732-.712-25.19-1.027-26.144-.462-1.255.744-1.799 3.547-1.738 6.489M331 82.545c.425 1.019 1.28 1.857 2.565 2.514 1.927.985 23.226 1.15 34.861 1.941 18.231 1.238 38.172 2.606 39.636 1.352 2.947-2.528 4.772-11.102 1-13.352m-39.338-6.608l.35 59.608"/><path d="M370.044 70.133c1.401-12.794 4.273-20.287 8.614-22.48 6.513-3.289 15.121 3.616 11.782 10.932-2.226 4.878-9.025 8.727-20.396 11.548z" stroke-linejoin="round"/><path d="M370.268 70.635c-1.882-10.884-4.772-17.763-8.67-20.637-5.846-4.311-16.913-3.019-16.201 5.89.475 5.94 8.765 10.856 24.87 14.747z" stroke-linejoin="round"/><path d="M368.642 70.382c-9.577 6.037-18.204 9.336-25.879 9.895-7.675.56-14.561-.508-20.658-3.204"/><path d="M370.909 71.047c7.847 5.979 15.212 8.652 22.096 8.02s12.156-4.61 15.82-11.936"/></g><path d="M309.854 166c5.862-.027 11.106 1.775 15.734 5.407 6.94 5.447 19.109 25.47 24.081 25.036s-2.378-42.29 0-44.56 13.067-3.307 16.663-2.186S378 208.957 360 220.376c-12 7.612-27.694-4.103-47.082-35.145z"/><path d="M155.982 58.922c-3.126-4.77-8.52-7.922-14.649-7.922-6.273 0-11.775 3.3-14.864 8.26m9.6 25.934c1.661.524 3.43.806 5.264.806 5.501 0 10.41-2.538 13.617-6.507" fill="#fff" stroke="#bfc7e4" stroke-linecap="round" stroke-width="2"/><g stroke="#2a2f54" stroke-linecap="round" stroke-width="2"><path d="M150.667 68.184l9.333.9m-3.5-5.25l-1.75 9.969"/></g><path d="M137.96 60.733c1.141-.772 2.647-.984 4.519-.635 2.491-1.338 3.874-1.86 4.148-1.569.412.439-1.154 3.249-1.896 5.084s2.831 10.43-2.824 16.059c-5.656 5.629-17.747 1.636-19.528 1.246-1.782-.39 5.54-2.446 6.467-3.313.448-.42-1.629-2.743-3.56-5.744-2.06-3.204-2.882-7.062-2.386-7.378.96-.612 8.528 3.195 10.986 2.518s2.364-5.11 4.075-6.268z" fill="#dee6ff"/><path d="M137.986 59.383c1.462-.66 3.26-.66 5.395 0 3.138-1.067 4.843-1.421 5.116-1.064.41.535-1.886 3.33-3.057 5.197-1.17 1.868 1.599 11.684-5.95 16.9-7.55 5.216-21.052-.925-23.073-1.617s8.179-1.599 9.407-2.394c.594-.384-2.744-3.407-4.511-6.938-1.887-3.769-2.214-8.056-1.581-8.322 1.224-.515 9.461 4.741 12.451 4.383 2.99-.359 3.609-5.155 5.803-6.145z" stroke="#2a2f54" stroke-width="2"/><path d="M98.149 262c-1.792 39.106-11.1 36.89-13.26 55.684-1.44 12.53-.056 20.968 4.15 25.316 7.759 1.822 12.746 2.262 14.961 1.318 3.323-1.415 10.045-45.395 12-52.14s7.004-52.73 9.942-54.454c2.937-1.724 17.064.276 19.54 3.276 2.478 3-8.45 14.228-11.602 25.641-2.1 7.609-3.45 16.395-4.046 26.359l14.144 1c15.474-29.624 22.542-48.905 21.204-57.842s-10.74-16.762-28.205-23.477L130 206.788l-26 6.413c-2.707 6.462-4.657 22.728-5.851 48.799z" fill="#d0d6ff"/><path d="M137.455 292.995c2.04-3.436 19.427-40.574 17.696-54.05-1.732-13.478-27.455-7.407-29.151-2.974s16.541-.47 18.167 6.759c1.627 7.23-7.74 13.677-11.187 24.27-3.448 10.593-3.448 22.496-3.261 24.603.186 2.106 5.697 4.828 7.736 1.392zM110.942 225c2.057 4.434-4.168 50.169-4.168 57.995 0 7.826-9.58 60.005-11.11 62.473-1.02 1.646-2.995 1.646-5.924 0-4.385-2.815-5.549-11.722-3.491-26.718 3.086-22.496 6.177-17.565 9.415-39.191 3.238-21.627 3.542-49.612 5.304-51.75 1.762-2.14 7.917-7.243 9.974-2.809z" fill="#afbaff"/><path d="M132.25 106.062c-.412-1.159-.315-2.416.29-3.771a9.42 9.42 0 0 1 .708-1.284c1.204-1.852 3.565-6.175 4.337-7.007s1.133.903 1.133 2.42c0 1.515-.664 3.318-1.99 5.406" fill="#ffdfce" stroke="#2a2f54" stroke-linecap="round" stroke-width="2"/><path d="M132.904 112c0-.532-.025-5.35 1.12-7.49s2.36-2.14 5.38-5.042c3.02-2.903 4.191-4.981 5.984-5.902 1.793-.921 3.71-1.051 4.157.69.447 1.743-3.404 6.682-4.945 8.89-1.54 2.207-4.288 2.45-5.7 4.866s-.347 3.975-1.9 5.246c-1.553 1.271-4.096-.726-4.096-1.258z" fill="#ffdfce"/><path d="M132.388 111.217c.025-3.767.388-6.206 1.088-7.316 1.586-2.513 5.567-4.88 7.024-5.84 1.457-.963 2.085-3.128 3.732-4.168s4.768-1.04 4.619.518c-.149 1.557-3.055 6.036-5.458 8.848-2.404 2.813-4.565 3.215-5.095 5.755-.13.619-.181 1.412-.157 2.379" stroke="#2a2f54" stroke-linecap="round" stroke-width="2"/><path d="M130.05 115h10.616c3.556 15.072 5.334 25.27 5.334 30.595 0 5.324-4.893 17.46-14.678 36.405L124 165.156c5.594-13.339 8.39-21.302 8.39-23.89s-.78-11.342-2.34-26.266z" fill="#fff7e9"/><path d="M135.087 144.688c2.235-.045 4.008 10.203 2.304 17.17s-5.03 13.162-7.588 13.213c-2.558.051-4.202-6.977-2.763-11.747s5.812-18.592 8.047-18.636z" fill="#ffeacf"/><path d="M137 170.63c-1.108 2.313-3 6.103-5.678 11.37L124 165.156a514.272 514.272 0 0 0 2.365-5.729m6.026-18.16c0-3.881-3.614-24.47-2.341-26.267 1.272-1.797 9.15-1.387 10.406 0 .962 1.062 3.701 13.752 4.932 23.226" stroke="#2a2f54" stroke-linecap="round" stroke-width="2"/><path d="M102.633 221.862c-2.78 1.754-1.838 5.855 1.747 5.855s29.229-11.108 31.73-13.277c2.502-2.169-1.384-3.436-2.871-3.795s-27.825 9.463-30.606 11.217z" fill="#afbaff"/><path d="M100.898 227.19c-1.158 8.472-2.075 20.075-2.75 34.81-1.79 39.106-7.988 37.562-10.148 56.356-2.16 18.794.26 25.065 2.1 26.653 1.84 1.587 9.62 2.008 11.7 0 2.08-2.009 12.245-46.086 14.2-52.83s7.512-53.739 9.294-55.179c1.782-1.44 17.712 1 20.189 4 2.477 3-8.452 14.228-11.603 25.641-3.151 11.413-3.747 25.021-2.852 26.359.896 1.338 9.27 2.9 12.526 1.45 3.257-1.45 23.635-44.886 21.628-58.292-1.296-8.656-10.157-16.27-26.581-22.84" stroke="#2a2f54" stroke-linecap="round" stroke-width="2"/><g transform="translate(137 136)"><circle cx="21.5" cy="21.5" fill="#fff" r="21.5"/><path d="M8.225 8A20.407 20.407 0 0 0 1 23.618c0 5.073 1.838 9.713 4.88 13.28M19.79 43.95c.47.033.944.05 1.422.05 6.994 0 13.158-3.581 16.787-9.024" stroke="#8b93b0" stroke-linecap="round" stroke-width="2"/><g stroke="#2a2f54" stroke-linecap="round" stroke-width="2"><path d="M41 24.729l7 .771m-3-3.93L44 29"/></g><g transform="translate(9 5)"><path d="M2.052 21.086C3.18 14.572 21.687 4.85 26.141 6.111s0 17.964-3.91 20.69c-3.909 2.725-21.306.8-20.179-5.715z" fill="#dee6ff"/><circle cx="22.5" cy="8.5" fill="#2a2f54" r="1.5"/><path d="M5.327.603C8.26-1.542 24.814 2.51 27.243 5.315c2.43 2.804-1.493 20.18-4.658 22.169-3.166 1.99-19.649-2.241-21.917-4.712S2.394 2.747 5.327.602z" stroke="#2a2f54" stroke-width="2"/><g fill="#fff"><path d="M14.357 20.879a5.499 5.499 0 1 1 2.286-10.758 5.499 5.499 0 0 1-2.286 10.758z"/><path d="M12.357 19.879A5.499 5.499 0 1 1 14.643 9.12a5.499 5.499 0 0 1-2.286 10.758z" stroke="#2a2f54" stroke-width="2"/></g></g></g><path d="M132.99 201.152c-.257.182-.967.58-2.032 1.127 1.19 4.464 4.042 7.296 4.042 9.01 0 2.74-32.034 14.204-33.605 12.548-.439-.462-.497-4.08-.174-10.851-5.466.892-10.112.598-12.37-1.968-7.568-8.6 10.218-39.812 14.723-43.637.353-.3 5.923-4.896 7.334-5.193 3.954-.834 8.312 1.398 10.322 1.087l3.179.525c3.028 1.507 5.2 5.6 6.27 8.462 1.363 3.64 4.527 9.12 1.311 18.94 1.494 2.031 2.888 8.613 1 9.95zM101.72 199c.086-1.585.18-3.252.28-5-.735 2.28-1.154 3.978-.947 4.615.077.236.308.358.668.385z" fill="#fff7e9"/><path d="M106.14 164.837c1.603 3.498-12.655 30.026-13.876 37.676-1.221 7.65 8.99 5.245 7.478 8.49-1.512 3.244-14.429 4.42-13.011-9.072 1.418-13.49 17.804-40.592 19.408-37.094z" fill="#ffeacf"/><path d="M103.706 197.503c-2.782-.476 3.385-6.271 7.442-7.591s14.6-.357 12.202 2.089c-2.398 2.446-16.862 5.979-19.644 5.502zm.926 14.96c1.904-1.689 19.161-8.494 22.872-8.838 3.71-.343 3.76 3.165 1.096 6.62-2.664 3.455-8.929 6.276-15.666 6.549-6.738.273-10.207-2.643-8.302-4.331z" fill="#ffeacf"/><path d="M124.113 163.325c3.162 1.513 5.428 5.619 6.546 8.49 1.232 3.164 3.876 7.714 2.377 15.28m-.958 17.784c1.371 2.83 3.091 4.786 3.091 6.092 0 2.75-33.44 14.251-35.08 12.59-.375-.379-.484-2.875-.327-7.49" stroke="#2a2f54" stroke-linecap="round" stroke-width="2"/><g><path d="M133.833 192c.688-1.97 1.527.017 2.915-1.456s1.311-4.932 3.21-6.717c1.898-1.786 4.088-7.658 5.071-6.277.983 1.381-2.134 8.107 0 7.292 2.134-.816 2.134-5.554 3.483-6.577 1.348-1.023 4.47-2.46 4.47.129 0 2.59-3.282 10.366-5.477 12.433-2.196 2.068-9.924 6.126-11.941 6.435s-2.42-3.292-1.731-5.262z" fill="#ffdfce"/><path d="M134.074 191.156c.54-.32.984-.65 1.335-.988 1.6-1.545 1.512-5.17 3.702-7.042 2.189-1.872 3.444-7.728 5.374-6.152 1.93 1.576-2.462 8.14 0 7.284 2.462-.855 2.937-5.891 4.492-6.964s5.715-4.7 4.388 1.256c-1.328 5.956-3.862 10.47-5.55 11.916-1.373 1.176-5.507 3.433-12.401 6.772" stroke="#2a2f54" stroke-linecap="round" stroke-linejoin="round" stroke-width="2"/></g><g transform="translate(84.6 121)"><path d="M25.276 38.806c1.773-3.407 10.065-10.389 15.615-24.347 3.167-7.967-1.167-10.494-7.793-12.415C23.16-.838 18.058 3.682 15.27 9.62s-2.825 11.03-4.14 18.504C9.817 35.598.014 47.738 4.32 53.509c1.191 1.596 2.358 2.076 5.821 2.953 1.478.374 3.378-5.256 6.069-8.556 3.614-4.433 8.052-7.147 9.067-9.1z" fill="#c49b9d"/><path d="M20.75 28.651c-3.93 2.07-3.33 4.807-6.306 11.566S2.097 50.77 7.558 55.409c2.646 2.249 3.293-3.762 8.856-9.63 1.393-1.47 4.842-3.545 10.345-6.224.892-1.314.892-3.255 0-5.824-1.338-3.854-2.078-7.15-6.008-5.08z" fill="#986c6e"/><path d="M29.408 37.443c3.265-5.077 7.177-12.806 11.739-23.187 3.008-6.745.601-10.948-7.22-12.607C22.194-.839 16.417 3.773 13.4 9.696 10.383 15.62 10.548 20.62 9.317 28c-1.23 7.381-12.19 19.633-6.923 25.15 1.457 1.525 3.04 2.617 4.798 3.172" stroke="#2a2f54" stroke-linecap="round" stroke-width="2"/><path d="M35.388 44.014c3.25-.712.95-4.45 1.797-6.514s6.866-1.575 7.848-7.5c.655-3.95-.388-9.942-3.129-17.977-1.684-1.609-3.258-2.637-4.72-3.084-1.461-.447-4.337-.528-8.628-.243-1.84 5.741-2.955 9.207-3.345 10.4-.585 1.787-3.627 0-4.739 3.998-1.112 4 3.222 5.623 4.154 5.623.932 0 2.414 5.3 2.256 7.764-.105 1.643-.857 3.274-2.256 4.893 5.008 2.234 8.595 3.114 10.762 2.64z" fill="#ffdfce"/><path d="M24.087 24.06L25.4 25" stroke="#2a2f54" stroke-linecap="round" stroke-width="2"/><circle cx="33" cy="19" fill="#2a2f54" r="1"/><circle cx="41" cy="17" fill="#2a2f54" r="1"/><g stroke="#2a2f54" stroke-linecap="round" stroke-linejoin="round" stroke-width="2"><path d="M32 15.304a2.182 2.182 0 0 0-2.468 1.844"/><path d="M42.4 13.808a2.196 2.196 0 0 0-3.033-.585"/><path d="M34.235 27.836c1.23 1.212 2.46 1.753 3.69 1.623s2.32-.914 3.271-2.354"/><path d="M37.404 17.487c1.1 2.06 1.651 3.475 1.651 4.246s-.4 1.527-1.2 2.267"/></g><path d="M36.687 36.099c-.684-.527-4.928-1.753-5.287-.243-.36 1.51 3.14 5.41 4.38 5.41 1.133 0 1.591-4.64.907-5.167z" fill="#ffbeaf"/><path d="M35.388 44.014c3.25-.712.95-4.45 1.797-6.514s6.866-1.575 7.848-7.5c.655-3.95-.388-9.942-3.129-17.977-1.684-1.609-3.258-2.637-4.72-3.084-2.192-.67-7.413-1.424-8.628-.243s-2.76 8.611-3.345 10.4c-.585 1.787-3.627 0-4.739 3.998-1.112 4 3.222 5.623 4.154 5.623.932 0 2.414 5.3 2.256 7.764-.105 1.643-.857 3.274-2.256 4.893 5.008 2.234 8.595 3.114 10.762 2.64z" stroke="#2a2f54" stroke-linecap="round" stroke-linejoin="round" stroke-width="2"/></g><path d="M108.004 163.626c-2.839 1.443-4.719 2.54-5.64 3.293-4.704 3.837-23.27 35.152-15.37 43.781 7.9 8.63 43.81-8.356 46.078-9.899 2.266-1.543 0-10.05-1.744-10.56-1.744-.508-30.293 11.199-31.524 8.463-.822-1.827 5.074-11.878 8.663-20.084" stroke="#2a2f54" stroke-linecap="round" stroke-width="2"/><path d="M270.043 196.98l-1.271 2.294c-6.65 11.974-13.408 23.958-12.113 25.867 1.37 2.023 10.469 3.85 18.767 5.448l.037-2.193c.17-6.657-5.606-16.442-5.42-31.415zm4.379-28.56c4.688-1.188 11.605-1.169 13.394-1.384 1.996-.24 7.364-1.113 16.768-1.03 4.045.035 11.638 1.304 14.948 2.039C332.838 171 342.395 201.199 350 198s-3.785-45.93 0-48.303c1.528-.958 5.462 1.016 10 1.097 4.501.081 9.618-1.744 8.692.508C365.938 157.995 376.727 201 364 218c-11.012 14.71-35.166-9.32-35.542-7.382-3.455 17.812 10.167 37.826 10.056 44.801-.102 6.442-53.578 8.982-62.853 9.01-.77.002-.67-1.716-.66-8.811l.096-5.682c-14.967-1.593-38.343-5.489-40.235-12.334-2.662-9.637 14.045-46.565 24.722-59.592 5.42-6.613 10.86-9.451 14.838-9.59z" fill="#fff"/><path d="M326.885 193.386c2.64-.281 21.487 27.392 33.96 18.459 6.71-4.805 5.787-7.248 8.437-5.456 2.65 1.791-.644 13.467-13.477 16.638-8.556 2.114-16.48-1.005-23.775-9.355-5.19-13.336-6.905-20.098-5.145-20.286zm-17.761 17.631c19.9-8.176 13.528 9.986 17.932 19.397 4.405 9.41 8.416 21.987 3.58 26.565-4.837 4.578-48.767 4.374-53.934-5.597-1.153-2.224 6.768.695 11.099-3.24 4.018-3.653 3.113-8.006 3.113-12.17 0-4.434-7.276-3.086-5.123-5.558 6.321-7.258 14.872-15.92 23.333-19.397z" fill="#f0f1ff"/><path d="M273.9 226.536c-.296-5.212-2.123-11.943-1.796-21.833m57.205-1.17c-.027 2.452-.24 4.832-.687 7.062-3.565 17.804 10.492 37.81 10.377 44.783-.02 1.266-4.631 3.622-10.377 4.622m-32.682 5.041c-11.415.828-21.44.547-22.566-.58-1.127-1.126 1.188-5.052 1.198-12.461" stroke="#2a2f54" stroke-linecap="round" stroke-width="2"/><g><path d="M296.046 281.742c2.858-12.46 6.031-19.683 9.52-21.667 5.235-2.975 10.16-3.573 15.652 1.487 3.662 3.374 3.401 11.909-.782 25.605" stroke="#2a2f54" stroke-linecap="round" stroke-linejoin="round" stroke-width="2"/><path d="M285.163 275.39l51.28 5.39c3.358 46.459 4.495 69.873 3.411 70.242-1.626.553-79.438-7.07-80.007-11.426-.38-2.904 8.06-24.306 25.316-64.205z" fill="#fff"/><path d="M287.203 277.948c.713-1.262 16.817.453 48.311 5.144 3.193 45.124 4.267 67.865 3.223 68.225-1.566.539-76.496-6.797-77.04-11.028-.545-4.231 24.437-60.448 25.506-62.34z" fill="#ffd0b9"/><path d="M287.14 276.956c-2.218 1.598-18.63 51.252-17.997 54.171.634 2.92 4.899 9.954 9.126 8.141s13.575-57.507 13.773-60.574c.198-3.066-2.684-3.336-4.902-1.738zm-1.912 68.544c-1.163-2.164 42.812-57.147 49.542-55.324C341.5 292 343 349.22 339.12 352.17s-52.73-4.505-53.893-6.669z" fill="#ffb08c"/><g stroke="#2a2f54" stroke-linecap="round" stroke-linejoin="round" stroke-width="2"><path d="M293 277l-9.351 67.583M288 277l-16 55m-11.665 6.675l11.457-6.618 10.306 11.443"/><path d="M285.163 275.39c.66-.667 9.082.891 25.298 2.882 4.763.585 13.424 1.421 25.983 2.509 3.357 46.458 4.494 69.872 3.41 70.24-1.626.554-79.438-7.068-80.007-11.425-.569-4.356 23.89-62.762 25.316-64.205z"/></g><path d="M301 282.1c1.76-12.662 4.293-20.134 7.596-22.414 4.955-3.42 9.81-4.445 15.721.117 3.942 3.042 4.426 11.567 1.453 25.576" stroke="#2a2f54" stroke-linecap="round" stroke-linejoin="round" stroke-width="2"/></g><g><path d="M269.534 199.311c.65-2.163 1.14-3.129-3.913-1.082s-19.982 25.627-16.316 30.554c3.666 4.927 30.129 8.951 34.912 9.545 4.783.593 8.883-5.473 3.986-6.79-4.897-1.318-26.419-4.484-29.035-7.05s9.718-23.013 10.366-25.177z" fill="#f0f1ff"/><path d="M284.458 166.596c-10.61-.053-18.678 3.854-24.874 11.414-10.677 13.027-27.384 49.955-24.722 59.592 2.663 9.637 48.999 11.979 52.13 11.462 1.82-.3.612-2.57 1.211-7.149.43-3.295 3.89-6.346 2.826-6.863-2.546-1.237-31.948-6.336-34.37-9.91-1.295-1.91 7.201-12.522 13.851-24.497" stroke="#2a2f54" stroke-linecap="round" stroke-width="2"/></g><g><path d="M293.611 238.497c5.804.713 11.99 4.554 16.905 9.503 4.915 4.948 6.414 18.591 5.58 19.43s-10.397-1.79-13.62-3.584-6.19-10.733-7.79-12.654c-1.432-1.718-5.21-3.374-5.442-3.792-1.081-1.947 1.411-9.266 4.367-8.903z" fill="#ecc6c3"/><path d="M298.309 255.29c2.517-.635 13.505 2.023 16.12 4.568 2.613 2.546 3.158 6.432.34 7.142-2.819.71-9.769-1.412-12.703-3.95-2.934-2.539-6.274-7.126-3.757-7.76z" fill="#db9a9d"/><g stroke="#2a2f54" stroke-linecap="round" stroke-width="2"><path d="M293.5 239.285c5.588 1.09 12.573 4.241 17.016 8.715 4.915 4.948 6.414 18.591 5.58 19.43-.835.838-10.397-1.79-13.62-3.584-3.222-1.793-6.19-10.733-7.79-12.654-.951-1.14-2.773-1.345-4.556-2.154"/><path d="M305.294 259.41l3.673 5.287m2.283-4.19l1.845 6.104"/></g></g><g transform="translate(206 93)"><path d="M66.61 17.426C65.763 15.249 53.7 1.672 38.602 7.251c-15.099 5.58-5.56 35.419-16.609 51.195C10.945 74.223 1.605 72.754 1.951 81.352c.347 8.598 18.824 20.809 37.94 1.834 19.115-18.975 1.38-55.646 7.697-61.12 3.599-3.119 13.754 1.01 15.68.541 1.924-.47 4.189-3.004 3.342-5.181z" fill="#fff"/><path d="M67.61 20.426c-.847-2.177-12.91-15.754-28.008-10.175-15.099 5.58-5.56 35.419-16.609 51.195C11.945 77.223 2.605 75.754 2.951 84.352c.347 8.598 18.824 20.809 37.94 1.834 19.115-18.975 1.38-55.646 7.697-61.12 3.599-3.119 13.754 1.01 15.68.541 1.924-.47 4.189-3.004 3.342-5.181z" fill="#cec7ff"/><path d="M72.566 58.326c-4.284-2.712-13.27-14.019-12.782-26.641s6.654-18.017 16.374-21.296c9.72-3.28 19.413 3.557 22.694 5.9 3.281 2.343 8.204 10.405 0 11.496-8.204 1.092-15.919-7.154-22.694-4.511-6.775 2.643-4.974 9.166-4.974 17.625s5.666 20.14 1.382 17.427z" fill="#cec7ff"/><path d="M59 37.779c.857-6.792 6.997-6.35 9.236-2.09s7.291 21.534 4.624 22.138C70.193 58.43 58.143 44.57 59 37.779zM47.72 25.34c-2.041-1.659-6.793-1.83-9.684 5.837-2.892 7.668 1.822 19.876-8.658 37.822S9 83.158 9 89.64 53.624 92.76 49.763 60s0-33-2.042-34.659z" fill="#aa9efa"/><path d="M63.103 13.272c-4.771-4.397-13.886-9.944-24.501-6.02-15.099 5.579-5.56 35.418-16.609 51.194C10.945 74.223 1.605 72.754 1.951 81.352c.347 8.598 18.824 20.809 37.94 1.834 19.115-18.975 1.38-55.646 7.697-61.12 2.323-2.013 7.376-1.007 11.185-.166" stroke="#2a2f54" stroke-linecap="round" stroke-width="2"/><path d="M103.777 23.752c.067-.434.073-.979.002-1.6-.45-3.96-3.989-11.08-14.425-13.187-9.25-1.867-17.026.312-23.753 6.778-6.727 6.466-6.673 12.301-6.6 17.726.044 3.2 1.103 6.452 2.526 9.467m6.794 11.227c1.69 2.73 4.06 4.675 7.11 5.837L71.27 34.88" stroke="#2a2f54" stroke-linecap="round" stroke-width="2"/><path d="M69.891 51.506c-3.186 0-5.891-3.945-5.891-7.15s3.054-5.55 6.163-4.456c2.147.756-1.092-13.816 6.85-19.641 1.85-1.358 19.754 6.88 24.448 5.067C106.332 40.706 106 46.1 106 49.374 106 57.92 98.36 61.42 96.86 65c-1.498 3.579 2.178 9.875 0 12.9-2.177 3.026-11.095 5.866-14.987-1.932-1.565-3.135-.387-4.784-3.124-11.91-1.837-4.78-3.86-6.72-5.574-12.552H69.89z" fill="#fff"/><path d="M69.61 51.506c-3.034 0-5.61-3.945-5.61-7.15s2.909-5.55 5.87-4.456c2.044.756-1.04-13.816 6.523-19.641 1.762-1.358 18.814 6.88 23.284 5.067C104.317 40.706 104 46.1 104 49.374 104 57.92 96.723 61.42 95.296 65s2.074 9.875 0 12.9-10.567 5.866-14.274-1.932c-1.49-3.135-.369-4.784-2.976-11.91-1.749-4.78-3.676-6.72-5.308-12.552H69.61z" fill="#ecc6c3"/><path d="M95.934 65.85c-1.471-.717-11.565-1.78-11.924.719-.359 2.5 9.183 6.913 11.33 6.388s2.065-6.388.594-7.106z" fill="#db9a9d"/><g stroke="#2a2f54" stroke-width="2"><path d="M69.891 51.506c-3.186 0-5.891-3.945-5.891-7.15s3.054-5.55 6.163-4.456c2.147.756-1.092-13.816 6.85-19.641 1.85-1.358 19.754 6.88 24.448 5.067C106.332 40.706 106 46.1 106 49.374 106 57.92 98.36 61.42 96.86 65c-1.498 3.579 2.178 9.875 0 12.9-2.177 3.026-11.095 5.866-14.987-1.932-1.565-3.135-.387-4.784-3.124-11.91-1.837-4.78-3.86-6.72-5.574-12.552H69.89z" stroke-linejoin="round"/><path d="M86.12 45.116c.862 2.742 2.215 4.474 4.059 5.195 1.844.72 4.139.453 6.886-.804" stroke-linecap="round"/><path d="M68.101 43.5l2.399 1m22.814-12.638a645.484 645.484 0 0 0 1.843 3.268c1.052 1.843 1.738 3.049 1.808 3.498.174 1.125-.298 2.583-1.416 4.372" stroke-linecap="round"/></g><circle cx="83.5" cy="31.5" fill="#2a2f54" r="1.5"/><path d="M82.95 26.95a3.184 3.184 0 0 0-4.045 1.96" stroke="#2a2f54" stroke-linecap="round" stroke-linejoin="round" stroke-width="2"/><circle cx="98.5" cy="30.5" fill="#2a2f54" r="1.5"/></g><g transform="rotate(-32 230.124 -411.444)"><ellipse cx="14.309" cy="11.24" fill="#ffdf7e" rx="14" ry="8"/><path d="M16.096 21.625c7.615 0 13.213-5.376 13.213-8.982s-4.567 3.555-15.094 3.302c-10.528-.253-11.906-4.457-11.906-.85s6.173 6.53 13.787 6.53z" fill="#f9be77"/><path d="M26.384 9.407C22.868 7.982 5.713 7.93 2.778 9.468c-2.935 1.538 6.043 5.929 12.313 5.857 6.27-.07 14.809-4.493 11.293-5.918z" fill="#f9be77"/><g stroke="#2a2f54" stroke-linecap="round" stroke-width="2"><path d="M1.576 11.768c0 5.233 7.17 9.287 15.048 9.351 7.642.063 13.489-4.504 13.489-9.351m-3.884 3.144l.422 1.83m-4.973-.118l.426 3.23m-6.062-2.611l.249 3.486M5.86 14.822l-.048 3.114"/></g><ellipse cx="15.863" cy="8.486" rx="14" ry="8" stroke="#2a2f54" stroke-width="2"/><path d="M11.634 7.469c.885-.34 1.685-1.2 2.651-1.281s1.525.664 2.42 1.054c.897.39 4.238-.434 4.889.07.65.506-1.899 1.295-1.905 1.925-.005.63 2.862 1.792 1.416 2.359-1.446.567-5.878-1.023-6.473-.874-.595.149-4.078 1.713-5.283 1.424-1.205-.29 1.096-1.877.725-2.264-.371-.387-3.619-1.126-3.36-1.812.239-.63 4.036-.261 4.92-.601z" fill="#fff3ce"/><g stroke="#2a2f54" stroke-width="2"><path d="M12.807 6.107c.885-.453 1.684-1.6 2.65-1.708.967-.109 1.525.886 2.421 1.406.896.52 4.237-.58 4.888.094.65.673-1.899 1.726-1.904 2.566-.006.84 2.861 2.389 1.415 3.145-1.446.756-5.877-1.363-6.472-1.165s-4.078 2.284-5.283 1.898c-1.205-.385 1.095-2.502.724-3.018-.37-.517-3.618-1.502-3.359-2.416.238-.84 4.035-.349 4.92-.802z"/><path d="M10.546 16.958l.623 3.614" stroke-linecap="round"/></g></g><g transform="rotate(35 148.846 488.669)"><ellipse cx="20.303" cy="12.959" fill="#fff" rx="18.5" ry="10.5"/><ellipse cx="20.099" cy="14.654" fill="#ffdf7e" rx="18.5" ry="10.5"/><path d="M21.763 29.699c10.435 0 18.107-6.989 18.107-11.678s-6.258 4.623-20.685 4.294C4.758 21.985 2.87 16.52 2.87 21.209s8.458 8.49 18.893 8.49z" fill="#f9be77"/><path d="M34.983 14.026c-4.64-1.832-27.286-1.899-31.16.079-3.874 1.977 7.977 7.622 16.253 7.53 8.276-.091 19.548-5.777 14.907-7.609z" fill="#f9be77"/><g stroke="#2a2f54" stroke-linecap="round" stroke-width="2"><path d="M1.122 17.534c0 6.28 9.643 11.144 20.237 11.222 10.278.075 18.14-5.405 18.14-11.222m-5.222 3.773l.568 2.195m-6.689-.141l.573 3.875m-8.152-3.133l.335 4.184M6.885 21.2l-.064 3.737"/></g><ellipse cx="20.467" cy="12.565" rx="19" ry="12" stroke="#2a2f54" stroke-width="2"/><path d="M16.528 8.981c1.062-.567 2.022-2 3.181-2.135 1.16-.135 1.83 1.107 2.905 1.758 1.075.65 5.085-.725 5.865.117.781.842-2.278 2.158-2.285 3.207-.007 1.05 3.434 2.987 1.699 3.932-1.735.945-7.053-1.704-7.767-1.457-.715.248-4.894 2.855-6.34 2.374-1.446-.482 1.315-3.129.87-3.774-.446-.645-4.343-1.876-4.032-3.02.286-1.049 4.843-.435 5.904-1.002z" fill="#fff3ce"/><g stroke="#2a2f54" stroke-width="2"><path d="M17.348 7.837c1.061-.68 2.02-2.4 3.18-2.563 1.16-.162 1.83 1.33 2.905 2.11 1.075.781 5.085-.87 5.865.14.781 1.01-2.278 2.59-2.285 3.85-.007 1.259 3.434 3.583 1.7 4.717-1.736 1.135-7.054-2.045-7.768-1.748-.714.298-4.894 3.426-6.34 2.848-1.446-.578 1.315-3.754.87-4.528s-4.343-2.252-4.031-3.623c.285-1.26 4.842-.523 5.904-1.203z"/><path d="M13.958 23.79l-.049 2.416" stroke-linecap="round"/></g></g><g><path d="M534.189 357.591c.4 1.84.691 3.185.873 4.034 2.265 10.58 3.255 16.261 2.97 17.042-.477 1.314-13.958 5.126-19.984 5.498-5.028.31-20.883-5.46-18.802-6.843 4.679-3.11 14.043-2.37 19.781-5.572 3.414-1.905 4.653-5.818 3.716-11.737a48.93 48.93 0 0 0-.433-2.227z" fill="#fff"/><path d="M532.71 356.49c.88.32 2.954 5.285-1.97 5.412-4.924.128-7.131-1.416-7.836-1.673-1.242-.452-1.347-3.584.111-4.171 1.458-.587 8.763.092 9.695.432z" fill="#ffe0cb"/><path d="M532.789 356.924c.454.835.736 2.572-.295 3.998-1.031 1.425-2.942 2.385-3.733 1.57s-1.072-4.075.18-5.457c1.253-1.381 3.393-.945 3.848-.11z" fill="#fec6a0"/><path d="M535.456 374.85c1.05-.871-1.383-10.44-1.785-11.138-.204-.354-1.882.055-3.5-.125-1.573-.175-3.772-1.147-4.187-.853-.842.598-.059 4.564-4.285 7.747-4.226 3.182-8.883 3.083-10.35 4.284-1.465 1.2-.325 3.239 3.492 4.365 3.816 1.126 19.565-3.409 20.615-4.28z" fill="#e9edff"/><path d="M535.29 373.92c.435-1.194-1.227-9.082-2.024-10.198-.797-1.116-4.64-.901-5.592-.372-.423.235-.668 3.201-1.823 5.958-1.446 3.451-3.721 6.865-2.728 7.495 1.786 1.133 11.733-1.69 12.167-2.883z" fill="#cecfff"/><g stroke="#2a2f54" stroke-linecap="round" stroke-width="2"><path d="M523.264 365.621c-.933-3.431-1.131-5.34-.595-5.726.805-.58 3.616 3.027 4.29 3.066.442.025 5.872-2.28 7.035-.907 1.162 1.373 4.68 15.606 4.394 16.39-.479 1.315-17.09 4.757-23.226 5.094-5.12.281-17.482-.163-17.071-2.46.7-3.917 12.114-6.912 18.554-8.772"/><path d="M511.397 378.423c-.181-1.098-.455-1.941-.821-2.53-.366-.589-.69-1.027-.973-1.316m25.856 2.146c-10.778 2.168-18.024 3.39-21.738 3.67s-7.774-.092-12.18-1.116m22.196-9.291l-2.447-2.049m-.536 4.003l-2.086-2.307m13.704-11.744l.256 2.222"/></g></g><g><path d="M533.228 271.127c-.625.37-1.416 4.851-.916 5.83.5.98 7.157 3.126 7.731 2.465.574-.661 2.064-5.233 1.43-6.031s-7.62-2.635-8.245-2.264z" fill="#ffe0cb"/><path d="M533.228 271.104c-.625.195-1.416 2.56-.916 3.076.5.517 7.157 1.65 7.731 1.3.574-.348 2.064-2.76 1.43-3.182s-7.62-1.39-8.245-1.194z" fill="#fec6a0"/><path d="M469.6 56.358c-4.332 1.99 1.792 29.3 3.13 30.357.893.705 14.207-.03 39.944-2.205 3.688-19.45 4.997-29.647 3.927-30.59-1.604-1.416-42.668.448-47 2.438z" fill="#fff0be"/><path d="M477.092 82.427c.304-5.212 30.915-20.96 35.495-20.712 4.58.248 1.635 17.616-1.572 20.062-3.207 2.446-34.227 5.862-33.923.65zm-7.74-28.255c-4.384.906-4.078 5.975-.024 6.76 4.054.784 40.289-.133 43.294-1.79 3.005-1.657 3.369-4.451 1.856-4.818-2.542-.617-40.74-1.058-45.125-.152z" fill="#f8d399"/><path d="M465.138 59.278c1.105 8.06 2.163 14.963 3.123 19.79M482.3 86.85c3.585-.113 7.412-.306 10.5-.432" stroke="#2a2f54" stroke-linecap="round" stroke-width="2"/><path d="M462.478 46.737c-1.733 1.365-.18 8.945 1.55 10.187.873.626 14.06-1.331 27.51-1.95 13.204-.607 22.533-.569 26.457-1.88 3.923-1.313 2.714-8.192-.161-9.482-2.875-1.29-53.623 1.76-55.356 3.125z" fill="#fff0be"/><g stroke="#2a2f54" stroke-width="2"><path d="M508.989 40.407c-9.804.321-25.442 1.446-36.483 2.554m-9.615 1.145c-1.814.28-2.96.535-3.204.746-1.84 1.598-.29 10.35 1.52 11.766.912.715 14.745-.73 28.912-1.593 15.108-1.075 24.306-2.042 27.596-2.9 1.705-.446 3.485-7.173.29-11.499m-28.52 2.452l2.303 39.69" stroke-linecap="round"/><path d="M489.496 41.062c2.135-9.286 4.954-14.517 8.458-15.693 5.255-1.764 11.267 4.196 8.104 9.25-2.108 3.369-7.629 5.516-16.562 6.443z"/><path d="M489.58 41.642c-3.196-8.026-5.84-12.844-7.934-14.457-3.14-2.419-9.806-.832-8.865 5.882.627 4.476 6.227 7.334 16.799 8.575z"/><path d="M489.305 42.242c-8.03 4.87-14.021 6.409-17.971 4.618-3.95-1.79-5.913-4.607-5.89-8.45" stroke-linecap="round"/><path d="M489.453 41.3c1.919 2.613 6.056 4.046 12.412 4.3 6.357.255 11.03-3.145 14.018-10.2" stroke-linecap="round"/></g><g stroke="#bfc7e4" stroke-linecap="round" stroke-width="2.031"><path d="M526.259 37.697l7.146-3.19m-6.015 9.997l3.595 1.753m-9.537-14.664l2.026-4.155"/></g><path d="M531.84 212.903c2.653 15.001-4.713 35.702-5.105 52.55 4.962.902 8.448 1.61 8.908 2.039 1.775 1.651-.211 17.12-3.434 17.668-.262.045-.918.046-1.903 0 5.535 22.805 9.974 69.185 6.418 70.215-3.96 1.147-17.341.449-19.677 0-2.25-.432-10.79-58.942-13.16-73.787-17.838-3.501-38.199-9.803-42.259-19.97-4.871-12.198 6.986-29.42 35.574-51.665 23.016 1.536 34.563 2.52 34.639 2.95zm-47.72 42.108c1.203 2.018 9.489 4.165 19.08 6.118.274-6.376.833-14.011 1.676-22.906-10.915 7.274-23.126 12.812-20.756 16.788z" fill="#bed5ff"/><path d="M525.275 225c-1.698 7-4.33 39.477-4.33 53.272 0 9.102 7.57 75.45 9.439 77.425s4.236.779 5.184-1.754c.948-2.534-.48-34.071-1.917-47.886-1.554-14.932-5.25-24.516-5.394-34.954-.144-10.437 3.689-44.506 2.939-56.103s-4.222 3-5.92 10z" fill="#9bbcfd"/><path d="M503 259.163c-3.779-1.372-14.603-4.127-15.592-5.91-2.36-4.253 16.667-6.782 18.396-16.168s1.156-28.343-7.572-24.714c-8.727 3.629-40.306 30.644-34.973 46.792C466.344 268.502 501 283.5 503 281.765s3.779-21.23 0-22.602zm28.152 26.916c2.984-.63 6.48-15.75 3.975-18.685-.632-.741-1.84-.661-5.257-1.806-2.277-.763-1.85 6.067 1.282 20.491z" fill="#9bbcfd"/><path d="M486.865 219.007c-6.011 3.024 3.948 10.744 16.172 11.264 12.223.52 21.025-3.404 26.724-6.271 3.799-1.911 4.66-4.735 2.583-8.472-26.312.304-41.472 1.464-45.48 3.48z" fill="#77a3fb"/><path d="M504.506 237.342c-2.237 22.095-2.739 36.744-1.506 43.947 2 11.684 13.314 74.321 15.711 74.767 1.222.227 3.935 1.364 8.265 1.444 4.162.077 7.972-.886 9.962-1.444 4.062-1.14-2.043-58.095-8.549-76.418-5.69-16.027 4.646-40.681 4.109-59.331" stroke="#2a2f54" stroke-linecap="round" stroke-width="2"/><path d="M484.068 221.504c-19.703 16.604-26.82 27.967-23.087 38.257 3.623 9.986 24.448 17.914 41.655 21.495m28.384 3.814c3.177-.532 5.593-15.906 3.903-17.556-.405-.395-3.333-1.038-7.59-1.856m-25.278-4.868c-8.807-1.908-16.21-3.972-17.278-5.893-2.069-3.721 8.508-8.76 18.849-15.313" stroke="#2a2f54" stroke-linecap="round" stroke-width="2"/><path d="M542.95 274.15c-1.655.545-2.95 3.15-2.296 6.895.654 3.745 3.915 3.93 4.598 6.285.184.636.333 1.598.446 2.886.165 1.891-.548 6.08.265 7.781.812 1.702 1.895 2.345 3.322-.514 1.427-2.86 9.149-15.577 7.633-21.003s-12.313-2.876-13.968-2.33z" fill="#cecfff"/><path d="M542.582 272.756c-1.223-.019-1.245 2.274-.317 3.67.93 1.394 13.2 5.964 14.76 5.606 1.561-.358 3.257-5.153 1.976-6.582-1.282-1.428-15.196-2.675-16.42-2.694z" fill="#9eb2ff"/><g stroke="#2a2f54" stroke-width="2" transform="translate(454 19)"><path d="M88.407 253.21c12.3 1.447 18.882 2.588 19.745 3.424 1.506 1.458-14.514 35.027-17.125 33.639-2.612-1.389-2.284-5.946-1.667-9.776.883-5.472 2.66-9.476.488-12.809-1.228-1.885-3.456-2.584-5.802-3.586-.36-2.19.61-3.506 2.91-3.944 1.092-.209 1.576-2.525 1.451-6.948z" stroke-linecap="round" stroke-linejoin="round"/><path d="M83.5 252.5l3.014 1" stroke-linecap="round"/><path d="M82 262.5h1.5" stroke-linecap="round"/><circle cx="96.093" cy="260.816" fill="#fff" r="3" transform="scale(-1 1) rotate(62 0 100.89)"/><path d="M104.774 257.33c-1.82 5.664-3.456 10.082-4.905 13.254-1.45 3.172-3.794 7.736-7.031 13.693" stroke-linecap="round"/><path d="M94.048 280.147l-1.67-.11" stroke-linecap="round"/></g></g><g transform="rotate(25 -123.071 981.808)"><ellipse cx="16.238" cy="8.177" fill="#fff" rx="14" ry="8" stroke="#2a2f54" stroke-width="2"/><ellipse cx="14.684" cy="10.931" fill="#ffdf7e" rx="14" ry="8"/><path d="M16.47 21.316c7.615 0 13.214-5.376 13.214-8.983s-4.567 3.556-15.094 3.303c-10.528-.253-11.906-4.458-11.906-.851s6.172 6.53 13.787 6.53z" fill="#f9be77"/><path d="M26.759 9.097C23.243 7.672 6.088 7.62 3.153 9.16c-2.936 1.538 6.042 5.928 12.312 5.857 6.27-.071 14.81-4.494 11.294-5.919z" fill="#f9be77"/><g stroke="#2a2f54" stroke-linecap="round" stroke-width="2"><path d="M1.95 11.458c0 5.233 7.171 9.287 15.049 9.352 7.642.062 13.488-4.504 13.488-9.352m-2.852 2.21l.422 1.829m-5.494.405l.426 3.229m-6.572-2.198l.249 3.486m-10.43-5.907l-.048 3.115"/></g><ellipse cx="16.238" cy="8.177" rx="14" ry="8" stroke="#2a2f54" stroke-width="2"/><path d="M13.387 6.841c.885-.34 1.685-1.2 2.651-1.281s1.524.664 2.42 1.055c.896.39 4.238-.435 4.888.07S21.448 7.98 21.442 8.61s2.862 1.792 1.416 2.36c-1.446.567-5.878-1.023-6.473-.875-.595.149-4.078 1.713-5.283 1.424-1.205-.289 1.095-1.877.725-2.264-.371-.387-3.619-1.126-3.36-1.811.238-.63 4.035-.262 4.92-.602z" fill="#fff3ce"/><g stroke="#2a2f54" stroke-width="2"><path d="M13.902 5.265c.766-.397 1.46-1.4 2.297-1.495s1.321.775 2.098 1.23c.776.456 3.672-.506 4.236.083.564.589-1.646 1.51-1.65 2.245-.005.734 2.48 2.09 1.226 2.752-1.253.662-5.093-1.193-5.61-1.02s-3.533 1.999-4.578 1.662.95-2.19.628-2.642c-.321-.451-3.136-1.313-2.911-2.113.206-.735 3.497-.306 4.264-.702z"/><path d="M10.92 16.649l.624 3.613" stroke-linecap="round"/></g></g><g transform="rotate(-31 260.504 -261.47)"><ellipse cx="14.593" cy="11.874" fill="#ffdf7e" rx="12.5" ry="9"/><path d="M14.345 22.278c7.05 0 12.234-5.376 12.234-8.983s-4.229 3.556-13.976 3.303c-9.748-.253-11.024-4.458-11.024-.85 0 3.606 5.715 6.53 12.766 6.53z" fill="#f9be77"/><path d="M23.116 11.597c-2.953-1.425-17.364-1.477-19.829.062-2.465 1.538 5.076 5.928 10.343 5.857 5.266-.071 12.44-4.494 9.486-5.919z" fill="#f9be77"/><g stroke="#2a2f54" stroke-linecap="round" stroke-width="2"><path d="M.819 12.075c0 5.205 6.636 10.441 13.44 10.506 6.602.062 11.98-5.188 11.98-10.01m-3.923 3.947l.379 1.647m-4.46-.106l.383 2.906m-5.435-2.35l.223 3.138"/></g><ellipse cx="13.909" cy="9.129" rx="12.5" ry="9" stroke="#2a2f54" stroke-width="2"/><path d="M13.058 7.075c.766-.34 1.46-1.2 2.297-1.282.838-.08 1.321.665 2.098 1.055.776.39 3.672-.434 4.236.07.564.506-1.646 1.295-1.65 1.925-.005.63 2.48 1.792 1.226 2.359-1.253.567-5.093-1.023-5.61-.874-.515.149-3.533 1.713-4.578 1.424-1.044-.29.95-1.877.628-2.264-.321-.387-3.136-1.126-2.911-1.812.206-.63 3.497-.261 4.264-.601z" fill="#fff3ce"/><g stroke="#2a2f54" stroke-width="2"><path d="M12.285 7.103c.708-.453 1.348-1.6 2.12-1.708s1.22.886 1.937 1.407c.717.52 3.39-.58 3.91.093.52.674-1.518 1.726-1.523 2.566-.005.84 2.29 2.39 1.132 3.145s-4.702-1.363-5.178-1.165c-.476.198-3.262 2.284-4.226 1.899-.964-.386.876-2.503.58-3.019-.297-.516-2.895-1.501-2.688-2.416.19-.84 3.228-.348 3.936-.802z"/><path d="M7.753 18.322l-.05 1.612" stroke-linecap="round"/></g></g><path d="M305 166.025c5.315-.788 15.96 1.75 20.588 5.382 6.94 5.447 19.109 25.47 24.081 25.036 4.124-.361.308-33.132 0-44.234-.063-2.287 2.157-3.437 2.263-3.436m2.62.924c1.518.93 3.292 1.394 5.323 1.394 3.046 0 4.768-2.491 6.457-1.394 1.688 1.097 11.668 59.26-6.332 70.679-7.855 4.982-17.293 1.684-28.314-9.897" stroke="#2a2f54" stroke-linecap="round" stroke-width="2"/><g><path d="M463.657 111.473c1.493-.905 7.048-2.503 8.019-.524s.581 24.401 2.006 29.16c1.425 4.758 1.427 7.806 7.443 9.715 2.59.822 11.312 2.955 19.032 2.566 10.205-.515 19.791-3.983 22.292-6.362 5.1-4.854 9.213-13.849 8.976-15.568-.464-3.376-8.076-23.91-7.406-24.767.67-.856 4.674-5.118 5.81-3.553 1.137 1.564 15.497 24.999 12.495 34.37s-12.47 27.855-13.987 33.179c-1.517 5.323 6.314 35.167 6.072 39.78-.136 2.59-8.947 15.082-26.79 15.303-14.06.174-25.246-9.064-25.929-10.512-1.24-2.629 2.842-39.126 1.16-42.68-1.681-3.555-18.17-12.633-21.322-18.167-3.152-5.533.636-41.035 2.13-41.94z" fill="#f0f1ff"/><path d="M462.584 109.377l.265-5.072c-.108-5.442.078-8.978.556-10.607.718-2.444 6.53-11.213 6.933-11.64.403-.429 1.326 1.034 1.468 2.385.095.901-.2 1.942-.887 3.124l3.76-4.243c.781.352 1.275.669 1.479.95.562.775 1.923.673 1.856 1.705-.104 1.596-1.09 3.545-2.956 5.848 1.255-.541 1.97-.757 2.147-.647.265.164 2.29-1.02-.135 2.58-2.425 3.599-4.79 5.223-6.13 7.222-.895 1.333-1.322 2.607-1.283 3.823.166 1.116.082 3.144.165 3.702.083.558-7.28 1.66-7.238.87z" fill="#ffe0cb"/><path d="M463.462 92.148c1.495-1.306 6.768 2.512 7.514 3.779.746 1.266-1.74 2.557-2.528 4.717-.786 2.16.32 2.69-1.739 3.852-2.058 1.16-4.426-.263-4.37-1.332.056-1.07-1.165-9.018 1.123-11.016z" fill="#fec6a0"/><g stroke="#2a2f54" stroke-linecap="round" stroke-width="2"><path d="M462.624 107.605l.185-3.522c-.111-5.389.072-8.89.55-10.503.717-2.42 6.524-11.101 6.927-11.525.402-.424 1.326 1.025 1.47 2.364.095.892-.2 1.923-.886 3.093l3.756-4.2c.783.35 1.276.663 1.48.941.563.768 1.924.667 1.858 1.69-.103 1.58-1.088 3.51-2.954 5.79 1.255-.536 1.97-.749 2.147-.64.265.163 2.29-1.01-.134 2.554-2.423 3.564-4.786 5.171-6.126 7.15-.894 1.32-1.32 2.581-1.28 3.785l.374 2.487" stroke-linejoin="round"/><path d="M476.155 84.083l-3.31 5.834"/></g><path d="M530.557 100.218c.099-1.89-5.601-14.026-7.086-15.611s-3.736-4.69-5.458-4.78c-1.723-.09-.873.327-2.519.24s-.743-.41-2.15-.484-1.775.797-1.838 2.002c-.042.803 1.476 2.764 4.553 5.882-3.162-1.509-4.764-1.856-4.807-1.043s1.485 2.59 4.583 5.326c1.684 2.489 2.804 4.226 3.36 5.21 2.245 3.978 3.392 6.053 4.831 6.204 2.96.31 6.432-1.056 6.53-2.946z" fill="#ffe0cb"/><path d="M522.892 87.052c-1.988-.75-4.892 6.323-4.956 7.551-.064 1.229 2.299 4.508 4.285 5.257 1.986.749 4.502-.956 4.553-1.924.05-.969-1.894-10.134-3.882-10.884z" fill="#fec6a0"/><g stroke="#2a2f54" stroke-linecap="round" stroke-width="2"><path d="M529.463 99.51l-2.948-5.19c-1.108-6.06-2.235-9.685-3.38-10.878s-3.485-2.47-7.023-3.83l-3.217-.998c-1.84.787-2.65 1.51-2.431 2.17.218.66 1.902 2.481 5.05 5.463l-4.316-1.731" stroke-linejoin="round"/><path d="M514.081 79.897l3.838 3.206"/></g><g fill="#d2d5fc"><path d="M528.29 103.794c-.123 2.344 8.362 22.008 8.53 25.159.168 3.15-9.326 32.62-6.703 33.935 2.624 1.315 16.147-21.107 15.59-29.482s-11.586-29.946-13.091-31.735c-1.505-1.79-4.203-.22-4.326 2.123zm-34.86 48.52c1.03 2.26-1.543 3.949-7.72 5.066-7.403.831-12.62-3.286-15.65-12.351-4.547-13.598-2.096-32.863-2.017-35.384.08-2.521-.06.14 3.064 2.027 3.125 1.886-1.057 19.315 5.46 30.566s15.32 6.687 16.864 10.077zm31.053 26.344c-9.127-.483-17.099 12.46-23.725 17.272-11.352 8.242-18.871 12.136-20.005 15.734-2.694 8.548 17.124 12.62 29.072 12.033 11.948-.588 21.785-5.155 24.415-14.43 2.63-9.276-.63-30.125-9.757-30.609z"/></g><path d="M517.503 148.749c2.638-1.504 4.395-2.9 4.939-3.309 2.34-1.76 8.19-11.514 7.724-14.716-.492-3.379-8.617-23.578-7.92-24.432.698-.855 8.758-5.63 9.948-4.064s16.227 25.044 13.115 34.411c-3.112 9.368-12.948 27.838-14.52 33.16s6.668 35.195 6.426 39.808c-.135 2.591-9.302 15.068-27.92 15.249-14.672.142-30.496-8.805-31.212-10.254-.77-1.56 3.523-11.008 4.531-22.196.693-7.686-1.623-18.145-2.34-19.594-1.764-3.56-17.409-13.487-20.71-19.03-3.302-5.542.675-41.663 2.23-42.565 1.556-.901 8.718-2.29 9.736-.308 1.017 1.981.662 24.412 2.16 29.175s1.507 7.812 7.788 9.736c1.878.574 6.815 2.065 12.424 2.897" stroke="#2a2f54" stroke-linecap="round" stroke-linejoin="round" stroke-width="2"/><path d="M511.05 88.832c2.542 1.822 4.311 3.223 5.307 4.202.995.98 2.062 2.646 3.202 5l1.742 5.355" stroke="#2a2f54" stroke-linecap="round" stroke-width="2"/></g><path d="M232.854 58.137c.491-2.17.175-3.463-.95-3.88-1.685-.625-3.403 2.032-4.594.875-1.19-1.157 1.037-3.287-.514-4.208-1.551-.92-3.461 1.772-4.993.974-1.532-.797 1.408-2.699-.084-3.765-1.493-1.067-2.296 1.317-4.092.376-.612-.322-.804-1.158-.575-2.509" stroke="#d49bf4" stroke-linecap="round" stroke-width="2.031"/><circle cx="190" cy="56" fill="#d5e0fb" r="2"/><path d="M216 82.057c1.293.317 2.405.203 3.337-.344.932-.547 1.398-1.406 1.398-2.578" stroke="#ffa7a7" stroke-linecap="round" stroke-width="2"/><path d="M408.55 38.138c.005-1.034-3.628-1.651-3.336-3.022.292-1.371 3.896-1.494 3.661-2.737-.234-1.243-3.783-1.366-4.085-2.42s3.183-1.372 2.998-2.726-2.894-1.433-2.879-2.633" stroke="#ff8682" stroke-linecap="round" stroke-width="2.031"/><path d="M374 26.392L372 23" stroke="#d5e0fb" stroke-linecap="round" stroke-width="2.031"/><circle cx="435" cy="47" r="3" stroke="#eab5e7" stroke-linecap="round" stroke-width="2.031"/><circle cx="304" cy="83" r="3" stroke="#bacefa" stroke-linecap="round" stroke-width="2.031"/><path d="M421 93.192L425.27 91" stroke="#7679ff" stroke-linecap="round" stroke-width="2.031"/><path d="M391.425 187.706c.845-1.115-1.39-5.061-2.676-5.074-1.286-.013-3.902 3.323-3.44 4.544.461 1.222 5.272 1.646 6.116.53z" fill="#d5e0fb"/><circle cx="441" cy="187" fill="#d5e0fb" r="2"/><g transform="translate(484 109)"><path d="M8.272 6.274c-1.45 3.201-2.588 5.801-3.413 7.8-1.236 3-4.36 2.662-4.36 4.376 0 1.143.683 2.24 2.048 3.29-.707 6.53.276 10.68 2.95 12.451 4.01 2.658 7.809-.87 9.705.309.532.33.682 2.912 0 4.391-1.032 2.24-3.163 3.608-2.362 3.925 1.924.76 6.818 3.007 10.511 2.242 2.515-.521 6.831-1.186 7.313-3.264.305-1.316-3.183-2.563-3.682-4.794-.858-3.834-.48-7.692 1.137-11.576-1.88-9.15-4.294-15.148-7.243-17.994-2.948-2.845-7.15-3.23-12.604-1.156z" fill="#ffe0cb"/><path d="M15.98 33.082c1.832-1.861 7.744-1.96 8.19-.352.445 1.608-4.956 6.255-6.466 6.57-1.51.316-3.556-4.356-1.724-6.218z" fill="#fec6a0"/><path d="M6.31 11.427c-.237.612-.958 2.045-2.123 3.178C2.602 16.147.5 17 .5 18.45s.682 2.24 2.047 3.29c-.707 5.863-.4 10.48 3.435 12.26 3.837 1.78 7.324-.678 9.22.5.532.33.682 2.912 0 4.391-1.032 2.24-3.285 3.109-2.362 3.925s3.522 2.242 8.567 2.242 8.775-1.186 9.257-3.264c.305-1.316-3.183-2.563-3.682-4.794a18.21 18.21 0 0 1-.442-4.412" stroke="#2a2f54" stroke-linecap="round" stroke-linejoin="round" stroke-width="2"/><path d="M2 24.893c.838 1.053 2.035 1.503 3.591 1.35 1.556-.151 2.772-.9 3.649-2.243" stroke="#2a2f54" stroke-linecap="round" stroke-linejoin="round" stroke-width="2"/><path d="M11.01.468C7.617.214 5.434.548 4.46 1.472c-1.46 1.384-1.521 3.145 0 5.207S16.192 5.03 19.183 7c2.991 1.971-.29 7.568.948 9.406 1.238 1.838 4.607-1.235 5.396 1.778s-2.077 5.188-2.077 7.625c0 2.436 1.794 8.027 6.37 1.993 4.576-6.033 5.292-7.804 5.18-14.463-.075-4.44-2.385-8.766-6.93-12.979z" fill="#ffd6a5"/><path d="M22.847 14.82c-.616 2.337 3.202 2.315 3.565 4.695.362 2.379-2.976 3.296-2.412 6.067s3.077 6.872 6.379 3.459c2.12-2.193 3.387-8.025 3.792-13.179.404-5.153-.32-11.396-3.792-11.396s-6.916 8.018-7.532 10.354z" fill="#ffbe70"/><circle cx="12" cy="15" fill="#2a2f54" r="1"/><g stroke="#2a2f54" stroke-linecap="round" stroke-width="2"><path d="M20.42 9.336c-.26 3.616-.26 4.593 0 8.067 1.248-.623 2.225-.972 2.931-1.047 3.347-.356 5.404 4.801.662 8.09-.233.161.286 2.84 1.514 4.054.48.475 1.328 1.042 2.543 1.701 3.593-2.737 5.627-7.147 6.1-13.23.43-5.496-.882-10.176-5.105-13.538" stroke-linejoin="round"/><path d="M8.005.826C3.084.64 2.512 6.127 5.05 7.538c2.766 1.538 7.504-.5 9.568-.78 1.535-.21 3.488.06 5.198.008M22.5 19.5l-1 1"/></g></g><path d="M271.923 453.019c1.017 1.655 4.752 9.262 9.888 14.734 8.45 9 19.555 16.987 20.183 18.429 1.047 2.404-9.503-1.498-17.747-7.574s-13.907-13.064-16.058-18.014c-2.152-4.95-1.574-9.828 0-11.315 1.574-1.486 1.042-.638 3.734 3.74z" fill="#d2d5fc"/><path d="M495.5 110.954c-.301-1.301 5.018-26.905 5.875-26.515.856.39 11.09 25.353 10.348 26.226-.741.872-15.923 1.59-16.224.29z" fill="#d2ccfe"/><path d="M503.38 86.02c-2.316.27-2.426 24.342-.267 24.944 2.16.601 10.117.454 10.437-1.356.32-1.81-7.854-23.856-10.17-23.587z" fill="#a39efa"/><g stroke-linecap="round"><path d="M494.684 110.513c-.3-1.302 5.834-26.464 6.69-26.074.857.39 11.37 24.992 10.628 25.865-.741.872-17.018 1.51-17.318.209z" stroke="#2a2f54" stroke-linejoin="round" stroke-width="2"/><path d="M494.315 108.337l15.37-8.426" stroke="#2a2f54" stroke-width="2"/><path d="M496.33 101.182l12.012-7.149" stroke="#2a2f54" stroke-width="2"/><path d="M498.922 92.84l7.343-4.352" stroke="#2a2f54" stroke-width="2"/><path d="M495.173 84.794l12.114-3.542" stroke="#2a2f54" stroke-linejoin="round" stroke-width="2"/><path d="M496.382 77.565l9.98 10.627" stroke="#2a2f54" stroke-linejoin="round" stroke-width="2"/><path d="M497.807 88.346l7.086-10.586" stroke="#2a2f54" stroke-linejoin="round" stroke-width="2"/><path d="M270.113 447.524c-.469.637-1.716 9.39.469 13.245 2.184 3.855 5.454 9.42 12.936 15.252 7.482 5.831 17.781 12.58 21.158 7.013 3.377-5.568-17.535-26.182-18.918-28.417-1.384-2.235-2.298-5.617-4.927-5.617s-2.442 4.367-5.949 3.273c-3.506-1.094-4.3-5.387-4.77-4.75zM517 56l-2.5 19.233" stroke="#2a2f54" stroke-width="2"/><path d="M244.225 21.08c1.669 1.553 3.336 2.148 5.002 1.785 1.666-.363 2.645-1.535 2.937-3.516" stroke="#ffaa2b" stroke-width="2.031"/></g></g></svg>